<svg xmlns="http://www.w3.org/2000/svg" viewBox="0 0 110.4 109.8">
    <defs>
        <linearGradient id="Y" x1="89.1" x2="147.8" y1="111.9" y2="168.1" gradientUnits="userSpaceOnUse">
            <stop offset="0" stop-color="#ffe052"/>
            <stop offset="1" stop-color="#ffc331"/>
        </linearGradient>
        <linearGradient id="B" x1="55.5" x2="110.1" y1="77.1" y2="131.9" gradientUnits="userSpaceOnUse">
            <stop offset="0" stop-color="#387eb8"/>
            <stop offset="1" stop-color="#366994"/>
        </linearGradient>
    </defs>
    <path fill="url(#B)"
          d="M99.8 67.5c-28 0-26.3 12.1-26.3 12.1v12.6h26.8V96H62.9s-18-2-18 26.3 15.7 27.2 15.7 27.2h9.3v-13s-.5-15.7 15.4-15.7H112s14.9.2 14.9-14.5V82.1s2.2-14.6-27-14.6zM85 75.9a4.8 4.8 0 1 1 0 9.7 4.8 4.8 0 1 1 0-9.7z"
          transform="translate(-45 -67.5)"/>
    <path fill="url(#Y)"
          d="M100.5 177.3c28 0 26.3-12.1 26.3-12.1v-12.6H100v-3.8h37.4s18 2 18-26.3-15.7-27.2-15.7-27.2h-9.3v13s.5 15.7-15.4 15.7H88.4s-14.9-.2-14.9 14.4v24.3s-2.2 14.6 27 14.6zm14.8-8.5a4.8 4.8 0 1 1 0-9.6 4.8 4.8 0 1 1 0 9.6z"
          transform="translate(-45 -67.5)"/>
</svg>
